<?xml version="1.0" standalone="no"?>
<!DOCTYPE svg PUBLIC "-//W3C//DTD SVG 20010904//EN"
 "http://www.w3.org/TR/2001/REC-SVG-20010904/DTD/svg10.dtd">
<svg version="1.0" xmlns="http://www.w3.org/2000/svg"
 width="449.000000pt" height="449.000000pt" viewBox="0 0 449.000000 449.000000"
 preserveAspectRatio="xMidYMid meet">
<metadata>
Created by potrace 1.11, written by Peter Selinger 2001-2013
</metadata>
<g transform="translate(0.000000,449.000000) scale(0.100000,-0.100000)"
fill="#000000" stroke="none">
<path d="M810 4475 c-125 -21 -200 -45 -316 -101 -259 -124 -404 -308 -472
-599 -14 -62 -16 -222 -19 -1445 -3 -978 -1 -1404 7 -1474 16 -136 50 -251
114 -381 116 -233 285 -372 542 -443 l99 -27 1415 -3 c1561 -3 1502 -5 1695
59 310 104 508 311 587 614 l23 90 0 1455 0 1455 -22 87 c-89 350 -281 578
-565 673 -168 55 -155 55 -1643 54 -1058 -1 -1387 -4 -1445 -14z m2570 -1070
c361 -97 580 -384 580 -759 0 -258 -84 -449 -264 -603 -163 -140 -420 -213
-653 -183 -349 44 -599 250 -684 566 -17 61 -22 109 -22 214 -1 161 14 232 78
365 101 209 293 354 540 409 94 21 333 16 425 -9z m-1220 -1030 c-66 -191
-199 -340 -385 -430 -76 -37 -212 -81 -221 -72 -3 2 615 554 623 556 1 1 -7
-24 -17 -54z m403 -653 l289 -289 -292 -432 -292 -432 -77 113 c-42 62 -173
256 -291 431 l-214 317 289 290 c160 160 292 290 295 290 3 0 135 -130 293
-288z"/>
<path d="M3005 3103 c-206 -74 -304 -240 -292 -493 8 -159 47 -251 141 -338
155 -142 421 -146 583 -8 192 165 202 555 19 738 -26 26 -76 62 -112 79 -60
30 -76 33 -178 36 -88 3 -121 0 -161 -14z"/>
</g>
</svg>
