<?xml version="1.0" encoding="utf-8"?>
<!-- Generator: Adobe Illustrator 16.0.3, SVG Export Plug-In . SVG Version: 6.00 Build 0)  -->
<!DOCTYPE svg PUBLIC "-//W3C//DTD SVG 1.1//EN" "http://www.w3.org/Graphics/SVG/1.1/DTD/svg11.dtd">
<svg version="1.1" id="Capa_1" xmlns="http://www.w3.org/2000/svg" xmlns:xlink="http://www.w3.org/1999/xlink" x="0px" y="0px"
	 width="595.281px" height="841.891px" viewBox="0 0 595.281 841.891" enable-background="new 0 0 595.281 841.891"
	 xml:space="preserve">
<g>
	<g>
		<path fill="#FFFFFF" d="M595.281,236.371c-22.137,9.711-45.725,16.147-70.318,19.272c25.301-15.105,44.609-38.842,53.688-67.453
			c-23.588,14.063-49.631,23.998-77.387,29.541c-22.396-23.849-54.318-38.619-89.143-38.619
			c-67.564,0-121.958,54.841-121.958,122.07c0,9.673,0.818,18.975,2.827,27.829c-101.458-4.948-191.233-53.575-251.543-127.65
			c-10.529,18.268-16.705,39.177-16.705,61.686c0,42.266,21.765,79.73,54.208,101.421c-19.607-0.372-38.842-6.064-55.138-15.03
			c0,0.372,0,0.855,0,1.339c0,59.305,42.302,108.564,97.775,119.912c-9.934,2.716-20.76,4.019-31.996,4.019
			c-7.813,0-15.701-0.446-23.104-2.084c15.812,48.33,60.681,83.86,114.033,85.014c-41.521,32.48-94.24,52.05-151.313,52.05
			c-10.008,0-19.607-0.446-29.206-1.674c54.059,34.86,118.126,54.766,187.216,54.766c224.569,0,347.346-186.025,347.346-347.272
			c0-5.395-0.186-10.603-0.447-15.774C558.335,282.543,578.687,261.075,595.281,236.371z"/>
	</g>
</g>
</svg>
